<?xml version="1.0" standalone="no"?>
<!DOCTYPE svg PUBLIC "-//W3C//DTD SVG 1.1//EN" "http://www.w3.org/Graphics/SVG/1.1/DTD/svg11.dtd">

<svg width="135" height="50" viewBox="0 0 135 50" 
  xmlns="http://www.w3.org/2000/svg"
  xmlns:xlink="http://www.w3.org/1999/xlink">


<polyline points="0.0, 10.47555928069819 0.8035714285714285, 12.415910729695694 1.607142857142857, 16.742410440545722 2.4107142857142856, 17.603360359144627 3.214285714285714, 19.258584790433282 4.017857142857142, 20.925302942589834 4.821428571428571, 21.077088282813452 5.625, 19.996772820814723 6.428571428571428, 16.703378468514334 7.232142857142857, 13.858201083757821 8.035714285714285, 13.234402827978386 8.839285714285715, 12.946011570551288 9.642857142857142, 12.438736504766009 10.446428571428571, 12.376040596000959 11.25, 29.74845000933736 12.053571428571429, 29.132428664117143 12.857142857142856, 28.89231202336055 13.660714285714286, 28.71198042695773 14.464285714285714, 28.527778547976457 15.267857142857142, 28.08474128944014 16.07142857142857, 27.686913126652275 16.875, 27.045431751200304 17.67857142857143, 27.46832102409173 18.482142857142858, 27.18771468666975 19.285714285714285, 26.887321568142436 20.089285714285715, 25.739035196167343 20.892857142857142, 24.24882909336934 21.696428571428573, 23.62943887166461 22.5, 23.633221017294122 23.303571428571427, 23.616207309310493 24.107142857142858, 23.802775181985815 24.91071428571429, 24.31220635144348 25.71428571428571, 27.403567280438228 26.517857142857142, 29.41885665702646 27.321428571428573, 30.725849565184816 28.125, 31.31022054553742 28.928571428571427, 31.571062315559516 29.732142857142858, 32.660902556749605 30.535714285714285, 33.307001170080724 31.339285714285715, 34.09278338945938 32.14285714285714, 35.154048989148826 32.94642857142857, 35.81982955481921 33.75, 36.328625836644235 34.55357142857142, 36.4227898275144 35.35714285714286, 37.00312042814015 36.160714285714285, 37.79670698150838 36.964285714285715, 38.584888018722104 37.767857142857146, 38.37283507686012 38.57142857142857, 36.99449769592541 39.375, 37.45396777515057 40.17857142857143, 39.02946270181607 40.982142857142854, 39.02790883833654 41.785714285714285, 39.26942539653721 42.589285714285715, 39.88721833767917 43.392857142857146, 38.59409134810326 44.19642857142857, 37.54940788638421 45.0, 36.933208144622895 45.80357142857143, 36.65969356261719 46.607142857142854, 36.15611843646317 47.410714285714285, 35.92748983236184 48.214285714285715, 35.54217582337222 49.01785714285714, 35.49648719162475 49.82142857142858, 35.42359010486976 50.625, 35.27287804675303 51.42857142857142, 35.17771436913942 52.23214285714286, 34.65473248257383 53.035714285714285, 34.24323033566397 53.839285714285715, 33.82647515747219 54.642857142857146, 33.77980492738798 55.44642857142857, 33.914182506276255 56.25, 33.27367821421248 57.05357142857143, 33.45879575742026 57.857142857142854, 0.0 58.660714285714285, 2.019347553881143 59.464285714285715, 3.53985313400584 60.267857142857146, 5.704931062441406 61.07142857142857, 7.062900479609785 61.875, 7.73890903788035 62.67857142857143, 10.59294886834957 63.482142857142854, 12.56251932180647 64.28571428571428, 15.080295724791116 65.08928571428572, 17.32922636287435 65.89285714285714, 19.76379153958655 66.69642857142857, 21.556225949864448 67.5, 23.389512246090717 68.30357142857143, 25.452680556007433 69.10714285714285, 26.91044448088381 69.91071428571429, 28.56463857513003 70.71428571428572, 30.253062839715216 71.51785714285714, 32.0521032672945 72.32142857142857, 34.150868282811196 73.125, 36.26265020639818 73.92857142857143, 37.78252566594209 74.73214285714286, 38.31250286931271 75.53571428571429, 38.87562384945645 76.33928571428571, 37.853859875152075 77.14285714285714, 37.22342659009797 77.94642857142857, 37.255441741229475 78.75, 37.67637425107372 79.55357142857143, 38.00148941838768 80.35714285714286, 38.596038825680864 81.16071428571428, 38.939139005815356 81.96428571428571, 39.28624804588834 82.76785714285715, 40.01762048015083 83.57142857142857, 40.321647951870595 84.375, 40.55091684793089 85.17857142857143, 40.48839887767293 85.98214285714285, 40.80402593351881 86.78571428571429, 41.80467564856696 87.58928571428572, 42.256811796341395 88.39285714285714, 41.790926791687866 89.19642857142857, 41.91571666832674 90.0, 42.36336805180028 90.80357142857143, 42.53018921127187 91.60714285714286, 42.6890391274899 92.41071428571429, 42.91552963730109 93.21428571428571, 43.38703106853131 94.01785714285714, 43.70010379903609 94.82142857142857, 43.988257501597516 95.625, 45.856055990609605 96.42857142857143, 46.603802485249375 97.23214285714286, 46.46823432423221 98.03571428571428, 46.77986107393028 98.83928571428571, 46.98282795985626 99.64285714285715, 47.334986342960924 100.44642857142857, 48.07788696989217 101.25, 48.514812286570844 102.05357142857143, 48.996749639890155 102.85714285714285, 49.46618025577788 103.66071428571429, 49.40620608600432 104.46428571428572, 49.65826609953346 105.26785714285714, 49.46740456291518 106.07142857142857, 49.37190954161892 106.875, 49.244757900989164 107.67857142857143, 49.755491318789474 108.48214285714286, 50.0 109.28571428571429, 48.93380404658041 110.08928571428571, 43.25474065308087 110.89285714285714, 41.01660091848974 111.69642857142857, 39.782074050075636 112.5, 38.51606182028199 113.30357142857143, 37.237218231948226 114.10714285714286, 36.70028804824005 114.91071428571428, 35.94088013960103 115.71428571428571, 35.48254043758977 116.51785714285715, 35.442892511748816 117.32142857142857, 34.26425621206787 118.125, 34.54530530778175 118.92857142857143, 33.865777527664676 119.73214285714285, 32.56876142991286 120.53571428571429, 31.404068708470913 121.33928571428572, 29.603239689658995 122.14285714285714, 29.048456749879826 122.94642857142857, 26.690779237668394 123.75, 25.224329888806647 124.55357142857143, 24.613451768468767 125.35714285714286, 23.959304155420853 126.16071428571429, 23.55392315354172 126.96428571428571, 23.654163245578257 127.76785714285714, 22.861818606926416 128.57142857142856, 24.429936462480114 129.375, 29.899593377403466 130.17857142857144, 31.814302289104496 130.98214285714286, 32.89854290662207 131.78571428571428, 33.47689475123622 132.5892857142857, 34.0288035705497 133.39285714285714, 34.108583946829604 134.19642857142858, 34.075391242907514" fill="none" stroke="#ff3a33" stroke-width="1.25"/>

</svg>