<?xml version="1.0" standalone="no"?>
<!DOCTYPE svg PUBLIC "-//W3C//DTD SVG 1.1//EN" "http://www.w3.org/Graphics/SVG/1.1/DTD/svg11.dtd">

<svg width="135" height="50" viewBox="0 0 135 50" 
  xmlns="http://www.w3.org/2000/svg"
  xmlns:xlink="http://www.w3.org/1999/xlink">


<polyline points="0.0, 48.616552891331935 0.8035714285714285, 47.02425228786063 1.607142857142857, 48.429095422948706 2.4107142857142856, 47.472310944532495 3.214285714285714, 45.69081163834249 4.017857142857142, 47.150731338875566 4.821428571428571, 42.7632659588719 5.625, 40.9802560374678 6.428571428571428, 35.90931684120641 7.232142857142857, 30.680654695279014 8.035714285714285, 25.172743867570063 8.839285714285715, 24.77402914547553 9.642857142857142, 26.019177788460045 10.446428571428571, 23.861619374156255 11.25, 21.423469542642266 12.053571428571429, 21.483353115391512 12.857142857142856, 19.3236950768067 13.660714285714286, 22.074988698254295 14.464285714285714, 21.911485971624746 15.267857142857142, 24.460202930449842 16.07142857142857, 23.467367724361665 16.875, 26.234804238358823 17.67857142857143, 25.27649287413587 18.482142857142858, 25.342518893005504 19.285714285714285, 21.63303415483775 20.089285714285715, 20.84496640579197 20.892857142857142, 21.547291801057323 21.696428571428573, 25.476792236060053 22.5, 22.526652436102303 23.303571428571427, 21.510432006873266 24.107142857142858, 23.748629632846267 24.91071428571429, 25.08405590409583 25.71428571428571, 23.734174271753634 26.517857142857142, 23.000231642767606 27.321428571428573, 22.300516010282124 28.125, 21.814566210278535 28.928571428571427, 24.104224560817567 29.732142857142858, 24.496540865484544 30.535714285714285, 27.13102980001206 31.339285714285715, 27.142618769794037 32.14285714285714, 24.78673986082387 32.94642857142857, 24.652100175243806 33.75, 23.745774968930576 34.55357142857142, 24.332703229103554 35.35714285714286, 22.030575805096237 36.160714285714285, 21.1206301314129 36.964285714285715, 22.531812512901013 37.767857142857146, 22.416318566490418 38.57142857142857, 26.345680950129513 39.375, 28.682062733062057 40.17857142857143, 32.03888876456264 40.982142857142854, 31.14161721100909 41.785714285714285, 28.797836227274114 42.589285714285715, 30.61236528711963 43.392857142857146, 26.586601714340663 44.19642857142857, 21.984769766081545 45.0, 18.643576588222967 45.80357142857143, 21.379890660346728 46.607142857142854, 22.4099348736365 47.410714285714285, 24.046609535505905 48.214285714285715, 22.510196212684217 49.01785714285714, 19.134729791702913 49.82142857142858, 22.342914754036826 50.625, 21.305358241810904 51.42857142857142, 19.432999646743713 52.23214285714286, 19.342347379302055 53.035714285714285, 17.637516030100777 53.839285714285715, 17.46386665883381 54.642857142857146, 16.827893368600034 55.44642857142857, 16.80948632791121 56.25, 17.27304620778031 57.05357142857143, 19.658461833172932 57.857142857142854, 19.775072489909792 58.660714285714285, 20.0380162850777 59.464285714285715, 17.123419001933645 60.267857142857146, 13.620149241630791 61.07142857142857, 12.661500181294214 61.875, 15.37590251998972 62.67857142857143, 10.872469627655276 63.482142857142854, 13.059688845296403 64.28571428571428, 10.800733391692681 65.08928571428572, 12.175263727365367 65.89285714285714, 10.763976515351883 66.69642857142857, 9.74990392485914 67.5, 4.3933026970604265 68.30357142857143, 4.993647836031507 69.10714285714285, 6.1542273381913555 69.91071428571429, 6.1052063942064505 70.71428571428572, 4.02175994213243 71.51785714285714, 5.6201050606332466 72.32142857142857, 5.599419443257698 73.125, 4.202722483504075 73.92857142857143, 2.2286195366189574 74.73214285714286, 1.7538450062586912 75.53571428571429, 1.6931949006335818 76.33928571428571, 0.0 77.14285714285714, 4.391440803628609 77.94642857142857, 5.192192237968704 78.75, 4.7895569394756645 79.55357142857143, 5.004568892614354 80.35714285714286, 3.748117274883325 81.16071428571428, 3.117956492530328 81.96428571428571, 5.479332270033082 82.76785714285715, 2.8085794356823177 83.57142857142857, 5.479702819243 84.375, 7.436482805473964 85.17857142857143, 5.853145475977112 85.98214285714285, 5.894741396660308 86.78571428571429, 6.159424415386794 87.58928571428572, 6.185825672134762 88.39285714285714, 6.980389790164429 89.19642857142857, 10.720038701369129 90.0, 7.8807691771734785 90.80357142857143, 7.571513501413915 91.60714285714286, 8.64950733833701 92.41071428571429, 7.112875256992972 93.21428571428571, 5.682600400763778 94.01785714285714, 6.244010923412364 94.82142857142857, 6.225115269665891 95.625, 6.274625541535624 96.42857142857143, 9.257505157386772 97.23214285714286, 12.108288713357055 98.03571428571428, 11.418932098325199 98.83928571428571, 10.689441573579868 99.64285714285715, 7.840302790214826 100.44642857142857, 8.912214669411505 101.25, 7.484760052709037 102.05357142857143, 7.057226765423645 102.85714285714285, 7.743467833151802 103.66071428571429, 11.667295700052772 104.46428571428572, 10.16677324046869 105.26785714285714, 9.964752717906968 106.07142857142857, 5.896875336931576 106.875, 8.194370014561231 107.67857142857143, 8.452659948761704 108.48214285714286, 8.825046897793182 109.28571428571429, 10.645482027443363 110.08928571428571, 14.88037521426967 110.89285714285714, 37.95666889964192 111.69642857142857, 31.232115810843492 112.5, 33.769749952815346 113.30357142857143, 34.66206142585585 114.10714285714286, 34.70763202207362 114.91071428571428, 35.087826630220746 115.71428571428571, 34.16363177762766 116.51785714285715, 31.700562618678376 117.32142857142857, 31.577963666475707 118.125, 31.271336356096967 118.92857142857143, 32.49946053958214 119.73214285714285, 34.79385198259822 120.53571428571429, 38.18617945945583 121.33928571428572, 38.50683542979535 122.14285714285714, 38.96110964467768 122.94642857142857, 43.95845399144385 123.75, 48.41410726391128 124.55357142857143, 50.0 125.35714285714286, 49.171468569177364 126.16071428571429, 44.475476089801 126.96428571428571, 41.68834347561832 127.76785714285714, 41.29022432879753 128.57142857142856, 35.652707499848006 129.375, 35.91221796372792 130.17857142857144, 32.63581306790658 130.98214285714286, 34.01839412006476 131.78571428571428, 37.465891970514 132.5892857142857, 35.734117072589626 133.39285714285714, 32.49694743706114 134.19642857142858, 28.9649470087003" fill="none" stroke="#32ca5b" stroke-width="1.25"/>

</svg>